<?xml version="1.0" encoding="UTF-8" standalone="no"?>
<!-- Created with Inkscape (http://www.inkscape.org/) -->

<svg
   width="1600"
   height="400"
   viewBox="0 0 423.33333 105.83333"
   version="1.1"
   id="svg1"
   xml:space="preserve"
   inkscape:version="1.4.2 (f4327f4, 2025-05-13)"
   sodipodi:docname="scbutterflyc13effff-10mm-angle-full-logo-2.svg"
   inkscape:export-filename="scbutterflyc13effff-10mm-angle-full-logo-2.png"
   inkscape:export-xdpi="96"
   inkscape:export-ydpi="96"
   xmlns:inkscape="http://www.inkscape.org/namespaces/inkscape"
   xmlns:sodipodi="http://sodipodi.sourceforge.net/DTD/sodipodi-0.dtd"
   xmlns="http://www.w3.org/2000/svg"
   xmlns:svg="http://www.w3.org/2000/svg"><sodipodi:namedview
     id="namedview1"
     pagecolor="#ffffff"
     bordercolor="#000000"
     borderopacity="0.25"
     inkscape:showpageshadow="2"
     inkscape:pageopacity="0.0"
     inkscape:pagecheckerboard="0"
     inkscape:deskcolor="#d1d1d1"
     inkscape:document-units="mm"
     inkscape:zoom="0.9"
     inkscape:cx="905.55556"
     inkscape:cy="312.22222"
     inkscape:window-width="2536"
     inkscape:window-height="1306"
     inkscape:window-x="39"
     inkscape:window-y="2"
     inkscape:window-maximized="0"
     inkscape:current-layer="layer1" /><defs
     id="defs1" /><g
     inkscape:label="Layer 1"
     inkscape:groupmode="layer"
     id="layer1"><path
       style="fill:#4b0082;fill-opacity:1;stroke:#c13eff;stroke-width:2.35887;stroke-dasharray:none;stroke-opacity:1"
       d="m 15.894902,55.474219 c -0.412735,-0.351536 -0.633002,-0.803496 -0.541074,-1.110212 0.109199,-0.364334 0.435653,-0.836689 1.22024,-1.76559 1.232546,-1.459254 1.259327,-1.52226 2.725586,-6.412311 l 1.251448,-4.173645 0.569995,-0.961209 c 0.313498,-0.528661 0.83641,-1.268106 1.162023,-1.643209 1.351895,-1.557354 4.106078,-2.642076 6.297745,-2.480339 0.363403,0.02681 0.675991,0.03989 0.694641,0.02904 0.01865,-0.01086 -0.376896,-0.565574 -0.878993,-1.232714 -0.695252,-0.92379 -1.047673,-1.495007 -1.478177,-2.395889 -0.773846,-1.619353 -0.910591,-2.051159 -0.963142,-3.041333 -0.07352,-1.385448 -0.01411,-1.978893 0.305616,-3.052349 0.356222,-1.195981 0.829721,-2.05675 1.807937,-3.286583 1.397337,-1.756759 1.676811,-2.139955 2.095747,-2.87355 0.676525,-1.184654 0.959669,-1.907004 1.624976,-4.145598 0.557931,-1.877305 0.658363,-2.151377 0.966462,-2.637445 0.733507,-1.157201 1.764869,-1.934045 2.538352,-1.911939 0.486431,0.0139 1.367761,0.356746 1.820059,0.708018 0.608196,0.472348 1.55707,1.586126 2.482329,2.913726 1.453805,2.085991 2.493371,4.015839 3.619502,6.719249 1.776929,4.265722 2.552618,7.453867 2.908119,11.95258 0.128338,1.624045 0.0264,4.197549 -0.262873,6.637048 -0.17227,1.452772 -0.57942,3.250199 -1.049775,4.634422 l -0.412545,1.214088 0.482266,-0.299877 c 1.618702,-1.006531 4.628728,-4.425747 6.022167,-6.840836 0.993797,-1.72243 1.873124,-3.916507 2.230158,-5.56464 0.251784,-1.162276 0.280462,-1.77648 0.114947,-2.461675 -0.244616,-1.012633 -0.706802,-1.51916 -1.225798,-1.343394 -0.264562,0.0896 -0.71692,0.638112 -1.01666,1.232771 -0.261142,0.518086 -0.480905,0.701297 -0.731048,0.609467 -0.701465,-0.257516 0.197253,-2.036916 1.360921,-2.694526 0.617269,-0.348832 1.10159,-0.222301 1.746504,0.456284 0.9192,0.967186 1.046877,2.663638 0.38988,5.1803 -0.770882,2.952891 -2.67405,6.326344 -5.174005,9.171149 -1.644725,1.871603 -2.614479,2.725982 -4.327753,3.81286 -0.540578,0.342936 -0.887953,0.630527 -1.021533,0.845718 -0.410271,0.66095 -1.500102,2.020957 -2.160968,2.69669 -1.490987,1.524528 -4.120664,3.651616 -6.99395,5.657241 -2.173383,1.517075 -2.585957,1.704051 -2.746194,1.244545 -0.122911,-0.352472 0.0539,-0.508932 2.359883,-2.088208 1.578605,-1.081131 2.504773,-1.791021 4.500444,-3.449512 1.434854,-1.192427 3.089475,-2.772879 3.163392,-3.021592 0.02193,-0.0738 -0.630463,0.232252 -1.449776,0.680121 -3.167837,1.731672 -4.689254,2.429157 -7.332767,3.361671 -2.656836,0.937218 -5.041016,1.552781 -6.939867,1.791774 -0.43842,0.05518 -1.107026,0.154456 -1.485791,0.220603 -1.559161,0.272299 -4.1459,0.287964 -5.916351,0.03584 -0.873964,-0.124462 -1.884135,-0.518265 -2.352299,-0.917014 z m 3.398075,0.133532 c 1.755232,0.128283 3.419858,0.01472 5.997881,-0.409159 1.384368,-0.227619 3.01917,-0.539838 3.63289,-0.693821 2.144396,-0.538022 4.55578,-1.404805 7.226125,-2.597457 1.292882,-0.577436 6.265439,-3.239898 6.591158,-3.529106 0.400613,-0.35571 0.7241,-1.165967 1.468784,-3.678923 l 0.716884,-2.419127 0.218165,-2.137377 c 0.304014,-2.978509 0.284628,-4.932539 -0.07678,-7.736512 C 44.264727,26.17327 41.137069,18.799647 37.626762,14.862955 36.35601,13.43785 35.479359,13.075334 34.579528,13.602853 c -0.922963,0.541078 -1.285401,1.205231 -2.042771,3.743296 -0.960952,3.220307 -1.639359,4.570282 -3.318173,6.602905 -1.27164,1.539638 -1.731693,2.343887 -2.158726,3.773813 -0.334748,1.120898 -0.340197,1.160102 -0.285492,2.053151 0.138048,2.253512 0.398182,2.820401 2.681358,5.843269 l 1.218237,1.612916 1.056252,0.510093 c 0.580942,0.280554 1.424252,0.738396 1.874026,1.017426 1.703434,1.056784 3.612351,2.84558 4.732532,4.434729 0.570778,0.809741 1.22971,2.18652 1.245276,2.601898 0.01352,0.360995 -0.243281,0.56532 -0.744492,0.592344 -0.512047,0.02762 -0.995812,-0.207845 -1.789811,-0.871121 -0.610781,-0.510227 -2.901608,-3.012967 -5.290296,-5.779676 -1.562387,-1.809643 -1.376739,-1.700972 -3.125138,-1.82937 -1.078424,-0.07919 -1.829153,0.02293 -3.108189,0.422858 -1.125072,0.351783 -1.429691,0.52601 -2.136422,1.221932 -0.679274,0.668886 -1.177162,1.341354 -1.742033,2.352858 -0.39877,0.714071 -0.466542,0.913792 -1.610222,4.745131 -1.417475,4.748558 -1.526585,5.006573 -2.713536,6.416735 -0.542593,0.644627 -1.002134,1.266278 -1.046554,1.415738 -0.06711,0.225794 0.318656,0.461378 1.25261,0.764953 0.635682,0.206622 1.171722,0.315657 1.765005,0.35902 z m 19.278916,-10.23886 c 0.03306,-0.111248 -0.424262,-0.970508 -0.802926,-1.508607 -1.0512,-1.49379 -3.305653,-3.544953 -5.044462,-4.589582 -0.225114,-0.135244 -0.247583,-0.133416 -0.178426,0.0145 0.339824,0.726852 4.379365,5.001005 5.515737,5.836085 0.45808,0.336624 0.480399,0.347458 0.510077,0.247597 z"
       id="path1"
       sodipodi:nodetypes="sssscssssssscssssssssssscssssssssssssssssssssssssssssssscssssssssscscssssssssssssssssssss" /><text
       xml:space="preserve"
       style="font-size:3.175px;text-align:start;writing-mode:lr-tb;direction:ltr;text-anchor:start;fill:#4b0082;fill-opacity:1;stroke:#c13eff;stroke-width:10;stroke-dasharray:none;stroke-opacity:1"
       x="88.154495"
       y="140.1573"
       id="text1"><tspan
         sodipodi:role="line"
         id="tspan1"
         style="stroke-width:10"
         x="88.154495"
         y="140.1573" /></text><text
       xml:space="preserve"
       style="font-size:3.175px;text-align:start;writing-mode:lr-tb;direction:ltr;text-anchor:start;fill:#4b0082;fill-opacity:1;stroke:#c13eff;stroke-width:10;stroke-dasharray:none;stroke-opacity:1"
       x="87.042137"
       y="133.20505"
       id="text2"><tspan
         sodipodi:role="line"
         id="tspan2"
         style="stroke-width:10"
         x="87.042137"
         y="133.20505" /></text><text
       xml:space="preserve"
       style="font-size:3.175px;text-align:start;writing-mode:lr-tb;direction:ltr;text-anchor:start;fill:#c13eff;fill-opacity:0.0392157;stroke:#c13eff;stroke-width:10;stroke-dasharray:none;stroke-opacity:1"
       x="57.008427"
       y="147.10954"
       id="text3"><tspan
         sodipodi:role="line"
         id="tspan3"
         style="fill:#c13eff;fill-opacity:0.0392157;stroke-width:10"
         x="57.008427"
         y="147.10954" /></text><text
       xml:space="preserve"
       style="font-size:3.175px;text-align:start;writing-mode:lr-tb;direction:ltr;text-anchor:start;fill:#c13eff;fill-opacity:0.0392157;stroke:#c13eff;stroke-width:10;stroke-dasharray:none;stroke-opacity:1"
       x="67.019661"
       y="171.30336"
       id="text4"><tspan
         sodipodi:role="line"
         id="tspan4"
         style="stroke-width:10"
         x="67.019661"
         y="171.30336" /></text><text
       xml:space="preserve"
       style="font-style:normal;font-variant:normal;font-weight:300;font-stretch:normal;font-size:51.405px;font-family:Kalam;-inkscape-font-specification:'Kalam Light';text-align:start;writing-mode:lr-tb;direction:ltr;text-anchor:start;fill:#c13eff;fill-opacity:1;stroke:#c13eff;stroke-width:1.01191;stroke-dasharray:none;stroke-opacity:1"
       x="46.016621"
       y="93.690353"
       id="text5"
       transform="scale(1.0713687,0.9333855)"><tspan
         sodipodi:role="line"
         id="tspan5"
         style="font-style:normal;font-variant:normal;font-weight:300;font-stretch:normal;font-size:51.405px;font-family:Kalam;-inkscape-font-specification:'Kalam Light';fill:#c13eff;fill-opacity:1;stroke-width:1.01191;stroke-dasharray:none"
         x="46.016621"
         y="93.690353">Sela's Creations</tspan></text></g></svg>
